<svg width="278" height="148" viewBox="0 0 278 148" fill="none" xmlns="http://www.w3.org/2000/svg">
<path d="M45.098 105.18C42.9769 105.18 40.8557 104.348 38.7345 102.685C36.6133 101.022 35.0916 98.4819 34.1694 95.0637C33.2471 91.5531 32.6015 87.5343 32.2326 83.0075C31.8637 78.3883 31.6793 73.5381 31.6793 68.4569C31.6793 61.2509 32.0021 53.9064 32.6477 46.4232C33.2932 38.8477 34.1233 31.6879 35.1377 24.9438C36.2444 18.1997 37.3972 12.5181 38.5962 7.89888C37.0283 8.17603 35.5989 8.40699 34.3077 8.59176C33.0166 8.77653 31.9099 8.9613 30.9876 9.14607C26.2841 9.97753 21.9957 10.9476 18.1222 12.0562C14.341 13.1648 11.2976 14.412 8.99194 15.7978C6.77854 17.1835 5.67184 18.7541 5.67184 20.5094C5.67184 21.0637 5.9024 21.8027 6.36352 22.7266C6.54797 23.0961 6.6402 23.4195 6.6402 23.6966C6.6402 24.3433 6.36352 24.6667 5.81017 24.6667C5.07237 24.6667 4.15012 24.1124 3.04342 23.0037C2.2134 22.2647 1.4756 21.0637 0.830025 19.4008C0.276675 17.7378 0 16.0749 0 14.412C0 12.01 0.645575 10.1623 1.93673 8.86892C3.59677 7.20599 6.77854 5.72784 11.482 4.43446C16.2777 3.14107 21.6729 2.07865 27.6675 1.24719C29.7887 0.97004 32.6477 0.692887 36.2444 0.415732C39.8412 0.138576 43.7608 0 48.0031 0C53.4444 0 59.0701 0.323347 64.8803 0.970041C70.6905 1.61673 76.0856 2.72534 81.0658 4.29588C86.1382 5.86642 90.2422 8.12984 93.3778 11.0861C96.5135 13.9501 98.0813 17.6454 98.0813 22.1723C98.0813 27.2534 96.8824 32.2422 94.4845 37.1386C92.0867 41.9426 88.7204 46.2846 84.3859 50.1648C80.0513 54.0449 74.9789 57.1398 69.1688 59.4494C63.3586 61.6667 57.0412 62.7753 50.2165 62.7753C48.7409 62.7753 47.2653 62.7291 45.7897 62.6367C44.4063 62.5443 42.9307 62.3596 41.3629 62.0824C41.1785 63.8377 41.0401 65.593 40.9479 67.3483C40.8557 69.1036 40.7635 70.8127 40.6712 72.4757C40.6712 73.3995 40.6251 74.4157 40.5329 75.5243C40.5329 76.633 40.5329 77.7878 40.5329 78.9888C40.5329 82.0375 40.6712 85.1323 40.9479 88.2734C41.3168 91.4145 41.9624 94.0474 42.8846 96.1723C43.8069 98.2048 45.1903 99.221 47.0348 99.221C47.957 99.221 48.9254 99.0362 49.9398 98.6667C50.9543 98.2971 51.5999 97.9276 51.8766 97.5581H52.8449C52.6605 100.052 51.7843 101.946 50.2165 103.24C48.7409 104.533 47.0348 105.18 45.098 105.18ZM41.9163 56.4007H43.7147C49.1559 56.4007 54.7355 55.5231 60.4535 53.7678C66.1714 51.9201 71.4283 49.3795 76.224 46.1461C81.0197 42.9126 84.8931 39.1248 87.8443 34.7828C90.7955 30.3483 92.2711 25.5443 92.2711 20.3708C92.2711 16.583 90.7955 13.6729 87.8443 11.6404C84.9853 9.60799 81.2502 8.22223 76.639 7.48315C72.0277 6.65169 67.1398 6.23595 61.9752 6.23595C59.9462 6.23595 57.9173 6.28215 55.8883 6.37453C53.8594 6.46691 51.8766 6.60549 49.9398 6.79026L50.3548 7.62172C50.0782 8.82272 49.5709 11.04 48.8331 14.2734C48.1876 17.4145 47.4036 21.2484 46.4814 25.7753C45.6514 30.2097 44.8214 35.0599 43.9913 40.3258C43.1613 45.5918 42.4696 50.9501 41.9163 56.4007Z" fill="url(#paint0_linear_28_5)"/>
<path d="M115.421 99.6367C110.902 99.6367 107.029 98.5743 103.801 96.4494C100.665 94.3246 98.2211 91.5069 96.4688 87.9963C94.8087 84.3933 93.8865 80.5131 93.702 76.3558V73.5843C93.702 69.1498 94.1632 64.7154 95.0854 60.2809C96.0999 55.8464 97.6216 51.7815 99.6505 48.0861C101.679 44.3908 104.262 41.4345 107.397 39.2172C110.533 36.9076 114.268 35.7528 118.603 35.7528H119.571C122.153 35.8452 123.998 36.8152 125.105 38.6629C126.304 40.5106 126.903 42.4969 126.903 44.6217V45.176C126.903 50.1648 125.75 54.5069 123.445 58.2022C121.231 61.8052 118.418 64.7154 115.006 66.9326C111.594 69.1498 108.043 70.6742 104.354 71.5056V72.1985C104.354 74.5081 104.538 77.0025 104.907 79.6816C105.276 82.2684 105.968 84.7628 106.982 87.1648C107.997 89.5668 109.426 91.553 111.271 93.1236C113.115 94.6017 115.467 95.3408 118.326 95.3408C121.831 95.3408 124.782 94.2322 127.18 92.015C129.578 89.7978 131.422 87.1648 132.713 84.1161C133.267 82.8227 133.728 81.3908 134.097 79.8202C134.558 78.1573 134.973 76.402 135.342 74.5543C135.526 73.4457 135.895 72.8914 136.448 72.8914C137.186 72.8914 137.555 73.6767 137.555 75.2472C137.555 75.5243 137.509 75.8477 137.417 76.2172C137.417 76.4944 137.371 76.8639 137.278 77.3258C136.725 80.5593 135.941 83.4232 134.927 85.9176C133.082 90.7216 130.638 94.2322 127.595 96.4494C124.644 98.5743 120.586 99.6367 115.421 99.6367ZM104.492 68.4569C107.351 67.6255 109.841 66.1473 111.963 64.0225C114.176 61.8052 115.928 59.2185 117.219 56.2622C118.511 53.3059 119.202 50.3034 119.294 47.2547V46.4232C119.294 44.8527 119.018 43.3283 118.464 41.8502C117.911 40.372 116.989 39.633 115.698 39.633H115.559C113.899 39.633 112.424 40.4644 111.133 42.1273C109.934 43.6979 108.919 45.7303 108.089 48.2247C107.259 50.7191 106.567 53.3059 106.014 55.985C105.461 58.6642 105.046 61.1124 104.769 63.3296C104.585 65.5468 104.492 67.1635 104.492 68.1798V68.4569Z" fill="url(#paint1_linear_28_5)"/>
<path d="M138.908 98.1124C137.617 98.1124 136.51 97.6504 135.588 96.7266C134.758 95.7104 134.343 94.0474 134.343 91.7378C134.343 91.3683 134.343 90.9988 134.343 90.6292C134.343 90.1673 134.389 89.7054 134.481 89.2435C134.666 87.5805 134.85 85.2709 135.035 82.3146C135.311 79.3583 135.496 76.0325 135.588 72.3371C135.772 68.6417 135.865 64.9463 135.865 61.2509C135.865 57.3708 135.726 53.7216 135.45 50.3034C135.265 46.7928 134.896 44.0212 134.343 41.9888C135.081 41.804 136.049 41.2959 137.248 40.4644C138.447 39.633 139.692 39.0787 140.983 38.8015C141.26 38.7091 141.629 38.6629 142.09 38.6629C143.658 38.6629 144.626 39.4944 144.995 41.1573C145.456 42.8202 145.687 44.8527 145.687 47.2547C145.687 48.9176 145.641 50.9039 145.548 53.2135C145.548 55.4307 145.456 57.3708 145.272 59.0337C146.286 56.0774 147.393 53.5368 148.592 51.412C149.791 49.1948 151.082 47.0699 152.465 45.0375C153.849 42.9126 155.324 40.834 156.892 38.8015C158.46 36.6767 160.581 35.6142 163.256 35.6142C166.022 35.6142 167.821 36.5381 168.651 38.3858C169.481 40.2335 169.896 42.2659 169.896 44.4831C169.896 45.6841 169.85 46.8389 169.757 47.9476C169.665 48.9638 169.573 49.9338 169.481 50.8577C169.481 51.5044 169.342 53.2135 169.066 55.985C168.789 58.6642 168.512 61.8514 168.236 65.5468C167.959 69.1498 167.821 72.799 167.821 76.4944C167.821 77.5106 167.867 78.9426 167.959 80.7903C168.051 82.5456 168.236 84.3471 168.512 86.1948C168.789 87.9501 169.25 89.4744 169.896 90.7678C170.634 91.9688 171.602 92.5693 172.801 92.5693C173.539 92.5693 174.369 92.2921 175.291 91.7378C176.305 90.9987 177.182 90.0287 177.919 88.8277C178.749 87.6267 179.395 86.4257 179.856 85.2247C180.225 84.3933 180.594 83.4694 180.963 82.4532C181.332 81.437 181.654 80.3745 181.931 79.2659C182.3 78.1573 182.807 77.603 183.453 77.603C183.914 77.603 184.144 78.0649 184.144 78.9888V79.5431C184.144 80.1898 184.006 81.0212 183.729 82.0374C183.545 83.0537 183.268 84.0699 182.899 85.0861C181.793 88.5044 180.133 91.5069 177.919 94.0936C175.798 96.588 172.801 97.8352 168.927 97.8352C166.345 97.8352 164.316 96.8652 162.841 94.9251C161.457 92.8926 160.443 90.3059 159.797 87.1648C159.428 85.4095 159.152 83.6542 158.967 81.8989C158.875 80.1436 158.829 78.3883 158.829 76.633C158.829 72.2909 159.105 67.995 159.659 63.7453C160.304 59.4032 160.627 55.2459 160.627 51.2734C160.627 49.98 160.443 48.779 160.074 47.6704C159.797 46.4694 159.105 45.8689 157.999 45.8689C156.892 45.8689 155.555 46.9313 153.987 49.0562C152.419 51.0886 150.805 54.0911 149.145 58.0637C147.485 61.9438 146.102 66.3783 144.995 71.367C143.888 76.2634 143.335 81.2984 143.335 86.4719C143.335 89.613 143.612 92.8002 144.165 96.0337C143.519 96.4956 142.689 96.9576 141.675 97.4195C140.66 97.8814 139.738 98.1124 138.908 98.1124Z" fill="url(#paint2_linear_28_5)"/>
<path d="M186.597 98.1124C185.306 98.1124 184.199 97.6504 183.277 96.7266C182.447 95.7104 182.032 94.0474 182.032 91.7378C182.032 91.3683 182.032 90.9988 182.032 90.6292C182.032 90.1673 182.078 89.7054 182.17 89.2435C182.354 87.5805 182.539 85.2709 182.723 82.3146C183 79.3583 183.184 76.0325 183.277 72.3371C183.461 68.6417 183.553 64.9463 183.553 61.2509C183.553 57.3708 183.415 53.7216 183.138 50.3034C182.954 46.7928 182.585 44.0212 182.032 41.9888C182.769 41.804 183.738 41.2959 184.937 40.4644C186.136 39.633 187.381 39.0787 188.672 38.8015C188.948 38.7091 189.317 38.6629 189.778 38.6629C191.346 38.6629 192.315 39.4944 192.684 41.1573C193.145 42.8202 193.375 44.8527 193.375 47.2547C193.375 48.9176 193.329 50.9039 193.237 53.2135C193.237 55.4307 193.145 57.3708 192.96 59.0337C193.975 56.0774 195.081 53.5368 196.28 51.412C197.479 49.1948 198.77 47.0699 200.154 45.0375C201.537 42.9126 203.013 40.834 204.581 38.8015C206.148 36.6767 208.27 35.6142 210.944 35.6142C213.711 35.6142 215.509 36.5381 216.339 38.3858C217.169 40.2335 217.584 42.2659 217.584 44.4831C217.584 45.6841 217.538 46.8389 217.446 47.9476C217.354 48.9638 217.262 49.9338 217.169 50.8577C217.169 51.5044 217.031 53.2135 216.754 55.985C216.478 58.6642 216.201 61.8514 215.924 65.5468C215.648 69.1498 215.509 72.799 215.509 76.4944C215.509 77.5106 215.555 78.9426 215.648 80.7903C215.74 82.5456 215.924 84.3471 216.201 86.1948C216.478 87.9501 216.939 89.4744 217.584 90.7678C218.322 91.9688 219.291 92.5693 220.489 92.5693C221.227 92.5693 222.057 92.2921 222.979 91.7378C223.994 90.9987 224.87 90.0287 225.608 88.8277C226.438 87.6267 227.084 86.4257 227.545 85.2247C227.914 84.3933 228.282 83.4694 228.651 82.4532C229.02 81.437 229.343 80.3745 229.62 79.2659C229.989 78.1573 230.496 77.603 231.141 77.603C231.603 77.603 231.833 78.0649 231.833 78.9888V79.5431C231.833 80.1898 231.695 81.0212 231.418 82.0374C231.234 83.0537 230.957 84.0699 230.588 85.0861C229.481 88.5044 227.821 91.5069 225.608 94.0936C223.487 96.588 220.489 97.8352 216.616 97.8352C214.034 97.8352 212.005 96.8652 210.529 94.9251C209.146 92.8926 208.131 90.3059 207.486 87.1648C207.117 85.4095 206.84 83.6542 206.656 81.8989C206.563 80.1436 206.517 78.3883 206.517 76.633C206.517 72.2909 206.794 67.995 207.347 63.7453C207.993 59.4032 208.316 55.2459 208.316 51.2734C208.316 49.98 208.131 48.779 207.762 47.6704C207.486 46.4694 206.794 45.8689 205.687 45.8689C204.581 45.8689 203.243 46.9313 201.676 49.0562C200.108 51.0886 198.494 54.0911 196.834 58.0637C195.174 61.9438 193.79 66.3783 192.684 71.367C191.577 76.2634 191.024 81.2984 191.024 86.4719C191.024 89.613 191.3 92.8002 191.854 96.0337C191.208 96.4956 190.378 96.9576 189.363 97.4195C188.349 97.8814 187.427 98.1124 186.597 98.1124Z" fill="url(#paint3_linear_28_5)"/>
<path d="M236.084 148C231.011 148 227.415 146.707 225.293 144.12C223.08 141.625 221.973 138.484 221.973 134.697C221.973 131.833 222.481 128.784 223.495 125.551C224.51 122.317 225.801 119.176 227.368 116.127C229.582 111.97 232.395 108.136 235.807 104.625C239.312 101.115 242.908 98.02 246.597 95.3408C250.286 92.5693 253.468 90.3521 256.143 88.6891C256.143 87.4881 256.097 85.5481 256.004 82.8689C255.912 80.0974 255.774 77.0025 255.589 73.5843C255.497 70.0737 255.313 66.7016 255.036 63.4682C254.298 67.5331 253.238 71.5518 251.854 75.5243C250.563 79.4969 248.995 83.5618 247.151 87.7191C246.69 88.7353 245.952 90.0287 244.937 91.5993C243.923 93.1698 242.77 94.5556 241.479 95.7566C240.188 96.8652 238.804 97.4195 237.329 97.4195C236.222 97.4195 235.161 96.9576 234.147 96.0337C233.225 95.2022 232.441 93.7703 231.795 91.7378C231.242 89.613 230.781 87.211 230.412 84.5318C230.135 81.8527 229.905 79.1273 229.72 76.3558C229.628 73.5843 229.582 71.0899 229.582 68.8727C229.582 67.8564 229.582 66.9788 229.582 66.2397C229.674 65.4082 229.72 64.7154 229.72 64.161C229.812 62.221 229.905 59.9114 229.997 57.2322C230.181 54.5531 230.458 51.8739 230.827 49.1948C231.196 46.4232 231.749 44.0674 232.487 42.1273C233.87 38.6167 236.591 36.8614 240.649 36.8614C241.11 36.8614 241.525 36.8614 241.894 36.8614C242.355 36.8614 242.77 36.9076 243.139 37C243.416 37.0924 243.646 37.1848 243.831 37.2772C244.107 37.2772 244.246 37.4157 244.246 37.6929C244.246 37.8777 244.2 38.0162 244.107 38.1086C243.185 40.3258 242.401 43.236 241.756 46.839C241.11 50.3496 240.603 54.1373 240.234 58.2022C239.865 62.2672 239.681 66.1473 239.681 69.8427C239.681 71.6904 239.727 73.4919 239.819 75.2472C239.911 76.9101 240.049 78.3883 240.234 79.6816C240.511 81.2522 240.879 82.6841 241.341 83.9775C241.802 85.2709 242.401 85.9176 243.139 85.9176C243.692 85.9176 244.384 85.3633 245.214 84.2547C247.059 81.6679 248.58 78.6192 249.779 75.1086C251.07 71.5056 252.039 67.8102 252.684 64.0225C253.422 60.2347 253.883 56.7241 254.068 53.4906C254.16 51.4582 254.252 49.3333 254.344 47.1161C254.437 44.8989 254.99 42.9126 256.004 41.1573C257.203 39.0325 258.679 37.7391 260.431 37.2772C262.276 36.8152 263.843 36.5843 265.135 36.5843H266.795C268.178 36.5843 268.87 36.8614 268.87 37.4157C268.87 37.6005 268.685 37.8777 268.316 38.2472C267.394 39.0787 266.656 40.6954 266.103 43.0974C265.642 45.4994 265.319 48.3633 265.135 51.6891C264.95 54.9226 264.858 58.2946 264.858 61.8052C264.858 65.7778 264.904 69.6117 264.996 73.3071C265.089 76.9101 265.135 79.7278 265.135 81.7603V83.2846C267.809 81.7141 270.115 80.4669 272.051 79.5431C274.08 78.5268 275.602 78.0187 276.617 78.0187C276.801 78.0187 276.939 78.0649 277.032 78.1573C277.124 78.1573 277.216 78.1573 277.308 78.1573C277.769 78.2497 278 78.6192 278 79.2659C278 79.5431 277.908 79.8664 277.723 80.236C277.539 80.5131 277.262 80.6517 276.893 80.6517C275.787 80.7441 274.265 81.3446 272.328 82.4532C270.484 83.4694 268.777 84.6704 267.21 86.0562C265.642 87.3496 264.858 88.5044 264.858 89.5206V91.1835C264.858 104.025 263.521 114.649 260.846 123.056C258.264 131.463 254.759 137.699 250.332 141.764C245.998 145.921 241.248 148 236.084 148ZM234.562 145.09H234.977C238.205 145.09 240.926 144.027 243.139 141.903C245.445 139.778 247.335 136.96 248.811 133.449C250.379 130.031 251.624 126.29 252.546 122.225C253.56 118.16 254.298 114.095 254.759 110.03C255.313 106.057 255.682 102.454 255.866 99.221C256.05 96.0799 256.189 93.7241 256.281 92.1536C254.805 92.985 252.546 94.6941 249.502 97.2809C246.459 99.8677 243.277 103.055 239.957 106.843C236.729 110.723 234.009 115.111 231.795 120.007C230.596 122.687 229.674 125.273 229.029 127.768C228.475 130.355 228.198 132.71 228.198 134.835C228.198 137.884 228.752 140.332 229.859 142.18C230.965 144.12 232.533 145.09 234.562 145.09Z" fill="url(#paint4_linear_28_5)"/>
<defs>
<linearGradient id="paint0_linear_28_5" x1="23.4482" y1="11.4326" x2="347.03" y2="170.353" gradientUnits="userSpaceOnUse">
<stop stop-color="#86DCCB"/>
<stop offset="1" stop-color="#ADFFDB"/>
</linearGradient>
<linearGradient id="paint1_linear_28_5" x1="23.4482" y1="11.4326" x2="347.03" y2="170.353" gradientUnits="userSpaceOnUse">
<stop stop-color="#86DCCB"/>
<stop offset="1" stop-color="#ADFFDB"/>
</linearGradient>
<linearGradient id="paint2_linear_28_5" x1="23.4482" y1="11.4326" x2="347.03" y2="170.353" gradientUnits="userSpaceOnUse">
<stop stop-color="#86DCCB"/>
<stop offset="1" stop-color="#ADFFDB"/>
</linearGradient>
<linearGradient id="paint3_linear_28_5" x1="23.4482" y1="11.4326" x2="347.03" y2="170.353" gradientUnits="userSpaceOnUse">
<stop stop-color="#86DCCB"/>
<stop offset="1" stop-color="#ADFFDB"/>
</linearGradient>
<linearGradient id="paint4_linear_28_5" x1="23.4482" y1="11.4326" x2="347.03" y2="170.353" gradientUnits="userSpaceOnUse">
<stop stop-color="#86DCCB"/>
<stop offset="1" stop-color="#ADFFDB"/>
</linearGradient>
</defs>
</svg>
