<svg width="80" height="80" viewBox="0 0 80 80" fill="none" xmlns="http://www.w3.org/2000/svg">
<path d="M13.5921 74.5772C13.3142 74.2946 13.3142 73.8365 13.5921 73.554L21.4422 65.5732C21.7201 65.2907 22.1707 65.2907 22.4486 65.5732V65.5732C22.7265 65.8558 22.7265 66.3139 22.4486 66.5964L14.5985 74.5772C14.3206 74.8597 13.87 74.8597 13.5921 74.5772V74.5772Z" fill="#EFEFEF"/>
<path d="M9.59843 71.7319C9.32051 71.4494 9.32051 70.9913 9.59843 70.7087L15.637 64.5697C15.9149 64.2872 16.3655 64.2872 16.6434 64.5697V64.5697C16.9213 64.8522 16.9213 65.3103 16.6434 65.5929L10.6049 71.7319C10.3269 72.0145 9.87634 72.0145 9.59843 71.7319V71.7319Z" fill="#EFEFEF"/>
<path d="M6.78056 74.5968C6.50264 74.3143 6.50264 73.8562 6.78056 73.5736L7.78698 72.5504C8.0649 72.2679 8.51549 72.2679 8.79341 72.5504V72.5504C9.07133 72.833 9.07133 73.2911 8.79341 73.5736L7.78698 74.5968C7.50907 74.8793 7.05847 74.8793 6.78056 74.5968V74.5968Z" fill="#EFEFEF"/>
<path d="M17.4485 63.7512C17.1706 63.4686 17.1706 63.0105 17.4485 62.728L18.455 61.7048C18.7329 61.4223 19.1835 61.4223 19.4614 61.7048V61.7048C19.7393 61.9873 19.7393 62.4454 19.4614 62.728L18.455 63.7512C18.177 64.0337 17.7264 64.0337 17.4485 63.7512V63.7512Z" fill="#EFEFEF"/>
<path d="M11.6499 62.3449C11.372 62.0623 11.372 61.6042 11.6499 61.3217L14.6692 58.2522C14.9471 57.9696 15.3977 57.9696 15.6756 58.2522V58.2522C15.9536 58.5347 15.9536 58.9928 15.6756 59.2753L12.6564 62.3449C12.3785 62.6274 11.9279 62.6274 11.6499 62.3449V62.3449Z" fill="#EFEFEF"/>
<path d="M9.40219 75.6381C9.32609 75.5608 9.32609 75.4353 9.40219 75.358L9.93176 74.8196C10.0079 74.7422 10.1312 74.7422 10.2073 74.8196L13.1523 77.8136C13.2284 77.891 13.2284 78.0164 13.1523 78.0937L12.6227 78.6321C12.5467 78.7095 12.4233 78.7095 12.3472 78.6321L9.40219 75.6381Z" fill="#FFED9F"/>
<path d="M9.40219 75.6381C9.32609 75.5608 9.32609 75.4353 9.40219 75.358L9.93176 74.8196C10.0079 74.7422 10.1312 74.7422 10.2073 74.8196L13.1523 77.8136C13.2284 77.891 13.2284 78.0164 13.1523 78.0937L12.6227 78.6321C12.5467 78.7095 12.4233 78.7095 12.3472 78.6321L9.40219 75.6381Z" fill="#FFED9F"/>
<path d="M12.3471 74.8196C12.4232 74.7422 12.5466 74.7422 12.6226 74.8196L13.1522 75.358C13.2283 75.4353 13.2283 75.5608 13.1522 75.6381L10.2072 78.6321C10.1311 78.7095 10.0078 78.7095 9.93166 78.6321L9.40208 78.0937C9.32599 78.0164 9.32599 77.8909 9.40208 77.8136L12.3471 74.8196Z" fill="#FFED9F"/>
<path d="M12.3471 74.8196C12.4232 74.7422 12.5466 74.7422 12.6226 74.8196L13.1522 75.358C13.2283 75.4353 13.2283 75.5608 13.1522 75.6381L10.2072 78.6321C10.1311 78.7095 10.0078 78.7095 9.93166 78.6321L9.40208 78.0937C9.32599 78.0164 9.32599 77.8909 9.40208 77.8136L12.3471 74.8196Z" fill="#FFED9F"/>
<path d="M8.16187 62.1718C8.16187 62.0624 8.2491 61.9737 8.35672 61.9737H9.10565C9.21327 61.9737 9.30051 62.0624 9.30051 62.1718V66.406C9.30051 66.5154 9.21327 66.6041 9.10565 66.6041H8.35672C8.2491 66.6041 8.16187 66.5154 8.16187 66.406V62.1718Z" fill="#FFED9F"/>
<path d="M8.16187 62.1718C8.16187 62.0624 8.2491 61.9737 8.35672 61.9737H9.10565C9.21327 61.9737 9.30051 62.0624 9.30051 62.1718V66.406C9.30051 66.5154 9.21327 66.6041 9.10565 66.6041H8.35672C8.2491 66.6041 8.16187 66.5154 8.16187 66.406V62.1718Z" fill="#FFED9F"/>
<path d="M10.8134 63.7101C10.9211 63.7101 11.0083 63.7988 11.0083 63.9082L11.0083 64.6696C11.0083 64.779 10.9211 64.8677 10.8134 64.8677L6.64859 64.8677C6.54098 64.8677 6.45374 64.779 6.45374 64.6696L6.45374 63.9082C6.45374 63.7988 6.54098 63.7101 6.64859 63.7101L10.8134 63.7101Z" fill="#FFED9F"/>
<path d="M10.8134 63.7101C10.9211 63.7101 11.0083 63.7988 11.0083 63.9082L11.0083 64.6696C11.0083 64.779 10.9211 64.8677 10.8134 64.8677L6.64859 64.8677C6.54098 64.8677 6.45374 64.779 6.45374 64.6696L6.45374 63.9082C6.45374 63.7988 6.54098 63.7101 6.64859 63.7101L10.8134 63.7101Z" fill="#FFED9F"/>
<path d="M70.0887 13.4755C69.8144 13.1967 69.8144 12.7445 70.0887 12.4656L74.0622 8.42604C74.3365 8.14716 74.7813 8.14716 75.0556 8.42604V8.42604C75.3299 8.70491 75.3299 9.15706 75.0556 9.43594L71.0821 13.4755C70.8078 13.7544 70.363 13.7544 70.0887 13.4755V13.4755Z" fill="#EFEFEF"/>
<path d="M68.5069 9.83216C68.2326 9.55328 68.2326 9.10114 68.5069 8.82226L73.2751 3.97474C73.5494 3.69587 73.9942 3.69587 74.2685 3.97474V3.97474C74.5428 4.25362 74.5428 4.70577 74.2685 4.98464L69.5003 9.83216C69.226 10.111 68.7812 10.111 68.5069 9.83216V9.83216Z" fill="#EFEFEF"/>
<path d="M64.3351 8.82227C64.0608 8.5434 64.0608 8.09125 64.3351 7.81237L67.1165 4.98466C67.3908 4.70578 67.8355 4.70578 68.1099 4.98465V4.98465C68.3842 5.26353 68.3842 5.71568 68.1099 5.99455L65.3284 8.82227C65.0541 9.10115 64.6094 9.10115 64.3351 8.82227V8.82227Z" fill="#EFEFEF"/>
<path d="M68.9044 4.1767C68.6301 3.89783 68.6301 3.44568 68.9044 3.1668L70.0964 1.95492C70.3708 1.67605 70.8155 1.67605 71.0898 1.95492V1.95492C71.3641 2.2338 71.3641 2.68595 71.0898 2.96482L69.8978 4.1767C69.6235 4.45558 69.1787 4.45558 68.9044 4.1767V4.1767Z" fill="#EFEFEF"/>
<path fill-rule="evenodd" clip-rule="evenodd" d="M68.0054 59.1907C80.878 46.1038 80.878 24.8859 68.0054 11.7991C55.1328 -1.28776 34.2622 -1.28776 21.3896 11.7991C8.51696 24.8859 8.51696 46.1038 21.3896 59.1907C34.2622 72.2775 55.1328 72.2775 68.0054 59.1907Z" fill="#FFF7D7"/>
<path fill-rule="evenodd" clip-rule="evenodd" d="M64.729 55.8599C75.7519 44.6536 75.7519 26.4847 64.729 15.2784C53.7062 4.07209 35.8346 4.07209 24.8118 15.2784C13.789 26.4847 13.789 44.6536 24.8118 55.8599C35.8346 67.0662 53.7062 67.0662 64.729 55.8599Z" fill="#FFED9F"/>
<path d="M17.0527 47.3769C16.6722 46.9901 16.6722 46.363 17.0527 45.9762L22.2302 40.7125C22.6107 40.3257 23.2276 40.3257 23.608 40.7125L39.9539 57.3304C40.3344 57.7172 40.3344 58.3443 39.9539 58.7312L34.7764 63.9948C34.3959 64.3816 33.779 64.3816 33.3986 63.9948L17.0527 47.3769Z" fill="#939393"/>
<path d="M18.8586 47.2383C18.7064 47.0836 18.7064 46.8327 18.8586 46.678L22.9205 42.5485C23.0727 42.3938 23.3194 42.3938 23.4716 42.5485L38.1479 57.4691C38.3001 57.6238 38.3001 57.8746 38.1479 58.0294L34.086 62.1588C33.9338 62.3136 33.6871 62.3136 33.5349 62.1588L18.8586 47.2383Z" fill="#FCFCFC"/>
<path d="M54.4426 11.3396C54.0621 10.9528 54.0621 10.3257 54.4426 9.93885L59.6201 4.67516C60.0006 4.28835 60.6174 4.28835 60.9979 4.67516L75.4015 19.3184C75.782 19.7052 75.782 20.3324 75.4015 20.7192L70.224 25.9829C69.8435 26.3697 69.2266 26.3697 68.8461 25.9829L54.4426 11.3396Z" fill="#939393"/>
<path d="M56.1117 11.0619C55.9596 10.9072 55.9596 10.6563 56.1117 10.5016L60.1736 6.3721C60.3258 6.21737 60.5726 6.21737 60.7248 6.3721L73.7323 19.5961C73.8845 19.7508 73.8845 20.0017 73.7323 20.1564L69.6704 24.2859C69.5182 24.4406 69.2715 24.4406 69.1193 24.2859L56.1117 11.0619Z" fill="#FCFCFC"/>
<path d="M14.3874 56.6841L31.4688 36.012L40.0423 26.7015L48.0139 18.5487L54.7538 13.0329L61.7316 8.55203L67.1269 7.08998L71.079 7.19446L73.4597 9.56618L72.9725 15.311L70.8362 21.017L59.9107 34.8396L42.2832 51.0673L23.4921 66.6808L18.5111 62.1606L14.3874 56.6841Z" fill="#94F7E4"/>
<path fill-rule="evenodd" clip-rule="evenodd" d="M19.8365 50.5012C25.9194 41.8892 35.8006 29.4139 45.7162 19.9287C50.6789 15.1814 55.6728 11.161 60.2203 8.75505C64.7447 6.3613 68.966 5.49464 72.2733 7.3214L72.6157 7.51054L72.5262 7.67814L72.6921 7.58716L72.8771 7.93587C74.6469 11.2722 73.7736 15.5455 71.4077 20.1308C69.029 24.7409 65.0689 29.8115 60.3978 34.8549C51.0647 44.932 38.8073 54.9914 30.3499 61.1891C29.6585 61.9325 28.5806 63.076 27.5514 64.1364C26.5159 65.2032 25.5029 66.214 24.9911 66.6314C24.7545 66.8243 24.4718 66.8833 24.208 66.8776C23.9475 66.8719 23.6748 66.8032 23.4092 66.7051C22.8778 66.5089 22.2791 66.1587 21.6884 65.7545C20.501 64.9419 19.2483 63.8433 18.4564 63.08L18.3022 62.9313L18.2988 62.9345L18.2392 62.8706L18.1736 62.8074L18.1769 62.8039L18.0306 62.6471C17.2713 61.8334 16.1776 60.5467 15.3674 59.3286C14.9644 58.7226 14.615 58.1092 14.4182 57.5658C14.3198 57.2942 14.2505 57.0157 14.2434 56.7499C14.2362 56.481 14.2927 56.1916 14.4832 55.9495C14.8934 55.4282 15.8878 54.398 16.9372 53.3455C17.9802 52.2994 19.105 51.204 19.8365 50.5012ZM18.9282 62.1698L19.1268 62.3612C19.8956 63.1024 21.1052 64.1615 22.2324 64.9328C22.7991 65.3205 23.3208 65.6187 23.7417 65.7741M18.9282 62.1698L18.7374 61.9654C17.9996 61.1747 16.9445 59.9314 16.1745 58.7738C15.7875 58.1919 15.489 57.6559 15.3325 57.2236C15.2541 57.0073 15.2205 56.8413 15.2173 56.7229C15.2142 56.6079 15.24 56.5733 15.2439 56.5683C15.6107 56.1022 16.5585 55.1167 17.6214 54.0506C18.6745 52.9944 19.813 51.8862 20.5394 51.1886L20.5734 51.156L20.6007 51.1174C26.6596 42.5348 36.5147 30.0909 46.3838 20.6501C51.3209 15.9273 56.2389 11.9781 60.6701 9.63366C65.1244 7.27697 68.9485 6.61219 71.8082 8.19172L71.9464 8.26806L72.0196 8.40601C73.5464 11.2843 72.8761 15.1527 70.545 19.6707C68.2265 24.1639 64.3358 29.1582 59.6885 34.1759C50.3986 44.2063 38.1717 54.2394 29.7429 60.413L29.7054 60.4405L29.6737 60.4746C28.9873 61.213 27.8969 62.3702 26.8579 63.4407C25.8092 64.5211 24.8397 65.4852 24.3815 65.8588C24.3753 65.8638 24.3406 65.8898 24.229 65.8873C24.1138 65.8848 23.9523 65.8519 23.7417 65.7741" fill="#92DDD4"/>
<path d="M31.9333 53.3238V51.5785H32.2767V53.3238H31.9333Z" fill="white"/>
<path d="M31.2466 52.2766H32.9634V52.6257H31.2466V52.2766Z" fill="white"/>
<path d="M62.9094 19.6646V17.9193H63.2528V19.6646H62.9094Z" fill="white"/>
<path d="M62.2227 18.6174H63.9394V18.9665H62.2227V18.6174Z" fill="white"/>
<path d="M28.0488 49.3745V47.6292H28.3922V49.3745H28.0488Z" fill="white"/>
<path d="M27.3621 48.3273H29.0788V48.6764H27.3621V48.3273Z" fill="white"/>
<path d="M59.0249 15.7153V13.97H59.3683V15.7153H59.0249Z" fill="white"/>
<path d="M58.3381 14.6681H60.0549V15.0172H58.3381V14.6681Z" fill="white"/>
<path d="M29.2627 56.039V54.2936H29.6061V56.039H29.2627Z" fill="white"/>
<path d="M28.5759 54.9918H30.2927V55.3408H28.5759V54.9918Z" fill="white"/>
<path d="M63.4482 21.4826V19.7372H63.7916V21.4826H63.4482Z" fill="white"/>
<path d="M62.7615 20.4354H64.4783V20.7845H62.7615V20.4354Z" fill="white"/>
<path d="M25.3782 52.0897V50.3443H25.7215V52.0897H25.3782Z" fill="white"/>
<path d="M24.6914 51.0424H26.4082V51.3915H24.6914V51.0424Z" fill="white"/>
<path d="M56.3542 18.4305V16.6851H56.6976V18.4305H56.3542Z" fill="white"/>
<path d="M55.6675 17.3833H57.3843V17.7323H55.6675V17.3833Z" fill="white"/>
<path d="M48.8598 31.9054C50.716 33.7925 50.716 36.8521 48.8598 38.7392C47.0035 40.6263 43.994 40.6263 42.1378 38.7392C40.2816 36.8521 40.2816 33.7925 42.1378 31.9054C43.994 30.0183 47.0035 30.0183 48.8598 31.9054Z" fill="#92DDD4"/>
<path d="M47.8257 32.9568C49.1108 34.2632 49.1108 36.3814 47.8257 37.6879C46.5406 38.9943 44.4571 38.9943 43.172 37.6879C41.887 36.3814 41.887 34.2632 43.172 32.9568C44.4571 31.6503 46.5406 31.6503 47.8257 32.9568Z" fill="white"/>
</svg>
