<svg width="100" height="38" viewBox="0 0 38 19" fill="none" xmlns="http://www.w3.org/2000/svg">
<path d="M2.90674 6.45006H2.94135C3.49508 5.42506 4.44681 4.96558 5.58889 4.96558H6.14262V7.81083C5.74462 7.58109 5.36393 7.52807 4.91402 7.52807C3.30473 7.52807 2.90674 8.62376 2.90674 10.0552V13.4307H-0.000366211V5.07161H2.90674V6.45006Z" fill="#7908FF"/>
<path d="M10.538 5.07178H7.63086V13.4132H10.538V5.07178Z" fill="#7908FF"/>
<path d="M15.6079 6.02604H15.6425C16.1616 5.19543 17.148 4.80664 18.117 4.80664C20.5569 4.80664 22.2354 6.89199 22.2354 9.27776C22.2354 11.6812 20.5569 13.6959 18.1343 13.6959C17.1999 13.6959 16.2309 13.3601 15.6079 12.6179V17.195L12.7008 18.4497V5.07173H15.6079V6.02604ZM15.5214 9.26009C15.5214 10.3204 16.2136 11.1334 17.3902 11.1334C18.5669 11.1334 19.2591 10.3204 19.2591 9.26009C19.2591 8.23509 18.5669 7.36914 17.3902 7.36914C16.2136 7.36914 15.5214 8.23509 15.5214 9.26009Z" fill="#7908FF"/>
<path d="M26.7 5.07178H23.7928V13.4132H26.7V5.07178Z" fill="#7908FF"/>
<path d="M37.9997 9.26009C37.9997 12.0877 35.6983 13.6959 33.068 13.6959C30.4551 13.6959 28.1364 12.1054 28.1364 9.26009C28.1364 6.41483 30.4378 4.80664 33.068 4.80664C35.6983 4.80664 37.9997 6.41483 37.9997 9.26009ZM31.1992 9.26009C31.1992 10.3204 31.8914 11.1334 33.068 11.1334C34.2447 11.1334 34.9369 10.3204 34.9369 9.26009C34.9369 8.23509 34.2447 7.36914 33.068 7.36914C31.8914 7.36914 31.1992 8.23509 31.1992 9.26009Z" fill="#7908FF"/>
<path d="M10.5378 2.75665L7.69995 3.92303V1.16614L10.5378 -0.000244141V2.75665Z" fill="#7908FF"/>
<path d="M26.6482 2.75665L23.8103 3.92303V1.16614L26.6655 -0.000244141L26.6482 2.75665Z" fill="#7908FF"/>
</svg>
